<svg width="166" height="166" viewBox="0 0 166 166" fill="none" xmlns="http://www.w3.org/2000/svg">
<circle cx="83" cy="83" r="83" fill="#F11E24"/>
<path d="M79.996 50.6875C77.149 50.6875 74.8985 52.6799 74.0797 55.2827C73.1058 54.5784 71.926 54.1597 70.6209 54.1597C67.0184 54.1597 64.3709 57.3501 64.3709 60.9306V86.2419L58.3104 79.2175L58.2885 79.1931C55.8372 76.4695 51.7879 76.4695 49.3366 79.1931C46.9844 81.8066 46.9713 85.9744 49.2972 88.6053L56.8751 98.3322L61.3008 104.349C64.8339 110.469 70.5193 114.645 76.9483 115.911C77.7951 116.077 78.6166 115.526 78.7832 114.679C78.9497 113.833 78.3985 113.011 77.5519 112.845C72.0499 111.762 67.0813 108.154 63.9674 102.717C63.9378 102.665 63.9054 102.616 63.8702 102.568L59.38 96.4628L51.7306 86.6437C51.7079 86.6147 51.6841 86.5863 51.6594 86.5588C50.3636 85.1191 50.3636 82.7234 51.6594 81.2838C52.866 79.9431 54.7455 79.9394 55.9558 81.2725L64.7504 91.4653C65.177 91.9597 65.8659 92.1366 66.4779 91.9091C67.0899 91.6816 67.4959 91.0975 67.4959 90.4444V60.9306C67.4959 58.7581 69.0458 57.2847 70.6209 57.2847C72.196 57.2847 73.7459 58.7581 73.7459 60.9306V81.7638C73.7459 82.6269 74.4455 83.3262 75.3084 83.3262C76.1714 83.3262 76.8709 82.6269 76.8709 81.7638V57.4583C76.8709 55.2859 78.4207 53.8125 79.996 53.8125C81.571 53.8125 83.121 55.2859 83.121 57.4583V78.2916C83.121 79.1547 83.8204 79.8541 84.6835 79.8541C85.5463 79.8541 86.246 79.1547 86.246 78.2916V60.9306C86.246 58.7581 87.7957 57.2847 89.371 57.2847C90.946 57.2847 92.496 58.7581 92.496 60.9306V74.125C92.496 74.9879 93.1954 75.6875 94.0585 75.6875C94.9213 75.6875 95.621 74.9879 95.621 74.125V67.875C95.621 65.7025 97.1707 64.2292 98.746 64.2292C100.321 64.2292 101.871 65.7025 101.871 67.875V77.25C101.871 78.1128 102.57 78.8125 103.433 78.8125C104.296 78.8125 104.996 78.1128 104.996 77.25V67.875C104.996 64.2945 102.348 61.1042 98.746 61.1042C97.5866 61.1042 96.526 61.4346 95.621 62.0021V60.9306C95.621 57.3501 92.9735 54.1597 89.371 54.1597C88.0657 54.1597 86.886 54.5784 85.9123 55.2827C85.0935 52.6799 82.8429 50.6875 79.996 50.6875Z" fill="white"/>
<path d="M100.688 94.4375C101.55 94.4375 102.25 95.1372 102.25 96V102.25C102.25 103.113 101.55 103.812 100.688 103.812C99.8247 103.812 99.1251 103.113 99.1251 102.25V96C99.1251 95.1372 99.8247 94.4375 100.688 94.4375Z" fill="white"/>
<path d="M102.25 108.5C102.25 107.637 101.55 106.938 100.688 106.938C99.8247 106.938 99.1251 107.637 99.1251 108.5V110.062C99.1251 110.925 99.8247 111.625 100.688 111.625C101.55 111.625 102.25 110.925 102.25 110.062V108.5Z" fill="white"/>
<path fill-rule="evenodd" clip-rule="evenodd" d="M104.88 86.8291C103.153 83.3741 98.2222 83.3741 96.4947 86.8291L84.3638 111.091C82.8054 114.208 85.0719 117.875 88.5563 117.875H112.819C116.303 117.875 118.57 114.208 117.011 111.091L104.88 86.8291ZM99.29 88.2266C99.8657 87.075 101.509 87.075 102.085 88.2266L114.216 112.489C114.736 113.528 113.98 114.75 112.819 114.75H88.5563C87.3947 114.75 86.6394 113.528 87.1588 112.489L99.29 88.2266Z" fill="white"/>
</svg>
