<svg width="166" height="166" viewBox="0 0 166 166" fill="none" xmlns="http://www.w3.org/2000/svg">
<circle cx="83" cy="83" r="83" fill="#F11E24"/>
<path d="M113.514 81.4261C113.514 77.6579 110.673 74.5428 107.021 74.1052V55.1926C107.021 54.0347 106.269 53.0541 105.151 52.7528C104.033 52.4518 102.891 52.9217 102.309 53.9226C98.3144 60.7959 92.022 65.494 83.6071 67.8865C77.2439 69.6956 71.9931 69.4334 71.9424 69.4303C71.8653 69.4259 71.7887 69.4296 71.7128 69.4372H58.2581C51.499 69.4372 46 74.9362 46 81.6953C46 88.0617 50.879 93.3082 57.0938 93.8966L61.1521 110.584C61.6894 112.794 63.6528 114.337 65.9269 114.337H68.7435C70.2609 114.337 71.669 113.653 72.6068 112.46C73.5446 111.267 73.8767 109.737 73.5183 108.262L70.0385 93.9533H71.7104C71.7865 93.961 71.8634 93.9647 71.9411 93.9603C71.9932 93.9574 77.2439 93.6949 83.6071 95.5041C92.0219 97.8966 98.3143 102.595 102.309 109.468C102.774 110.267 103.596 110.728 104.477 110.728C104.7 110.728 104.926 110.698 105.151 110.638C106.269 110.337 107.021 109.356 107.021 108.198V89.2852C110.673 88.8478 113.514 85.7327 113.514 81.9645V81.4261ZM70.2086 107.051L70.6713 108.954C70.8162 109.55 70.6822 110.168 70.3034 110.65C69.9249 111.131 69.3562 111.408 68.7435 111.408H65.9269C65.0085 111.408 64.2158 110.784 63.9988 109.892L60.1227 93.9534H67.0234L68.0581 98.2081H67.3579C66.5488 98.2081 65.893 98.8639 65.893 99.6729C65.893 100.482 66.5488 101.138 67.3579 101.138H68.7704L69.4961 104.122H69.037C68.228 104.122 67.5722 104.777 67.5722 105.586C67.5722 106.396 68.228 107.051 69.037 107.051H70.2086ZM70.3945 84.8075H61.2911C60.482 84.8075 59.8262 85.4633 59.8262 86.2724C59.8262 87.0814 60.482 87.7372 61.2911 87.7372H70.3945V91.0237H68.2545C68.2277 91.0223 68.201 91.0204 68.1738 91.0204H58.2581C58.2442 91.0204 58.2304 91.0224 58.2165 91.0227C53.092 91 48.9297 86.825 48.9297 81.6953C48.9297 76.5517 53.1145 72.3669 58.2581 72.3669H70.3945V84.8075ZM104.091 75.5156V87.875V106.767C99.7007 99.9399 92.8914 95.0756 84.3093 92.6582C79.5575 91.3196 75.4532 91.0523 73.3242 91.0176V86.2724V72.373C75.4535 72.3383 79.558 72.0708 84.3093 70.7324C92.8913 68.3148 99.7007 63.4507 104.091 56.6236V75.5156ZM110.584 81.9645C110.584 84.1141 109.051 85.9122 107.02 86.3223V77.0683C109.051 77.4785 110.584 79.2766 110.584 81.4261V81.9645Z" fill="white"/>
<path d="M113.953 73.149C114.305 73.149 114.658 73.0228 114.938 72.7672L119.163 68.9194C119.762 68.3746 119.805 67.4482 119.26 66.85C118.715 66.2519 117.789 66.2087 117.191 66.7533L112.966 70.601C112.368 71.1458 112.324 72.0722 112.869 72.6704C113.158 72.9878 113.555 73.149 113.953 73.149Z" fill="white"/>
<path d="M114.939 90.6235C114.34 90.0789 113.414 90.1221 112.869 90.7202C112.324 91.3183 112.368 92.2448 112.966 92.7896L117.191 96.6373C117.472 96.8931 117.825 97.0192 118.177 97.0192C118.575 97.0192 118.971 96.8581 119.26 96.5406C119.805 95.9425 119.762 95.016 119.163 94.4712L114.939 90.6235Z" fill="white"/>
<path d="M119.535 80.2305H116.291C115.482 80.2305 114.826 80.8863 114.826 81.6953C114.826 82.5043 115.482 83.1602 116.291 83.1602H119.535C120.344 83.1602 121 82.5043 121 81.6953C121 80.8863 120.344 80.2305 119.535 80.2305Z" fill="white"/>
<path d="M56.6084 85.7125C56.5718 85.6231 56.5264 85.5382 56.4736 85.4591C56.4194 85.3785 56.3594 85.3038 56.292 85.2364C56.2231 85.169 56.1484 85.1075 56.0679 85.0548C55.9888 85.002 55.9038 84.9566 55.8159 84.92C55.7266 84.8834 55.6343 84.8555 55.542 84.8365C55.353 84.7984 55.1582 84.7984 54.9692 84.8365C54.8755 84.8555 54.7832 84.8834 54.6953 84.92C54.6074 84.9566 54.521 85.002 54.4419 85.0548C54.3613 85.1075 54.2866 85.169 54.2192 85.2364C54.1519 85.3038 54.0903 85.3785 54.0376 85.4591C53.9849 85.5382 53.9395 85.6231 53.9028 85.7125C53.8662 85.8004 53.8384 85.8927 53.8193 85.9864C53.8003 86.0802 53.79 86.1768 53.79 86.2721C53.79 86.3673 53.8003 86.464 53.8193 86.5592C53.8384 86.6515 53.8662 86.7437 53.9028 86.8331C53.9395 86.921 53.9849 87.006 54.0376 87.0851C54.0903 87.1656 54.1519 87.2403 54.2192 87.3077C54.2866 87.3751 54.3613 87.4366 54.4419 87.4908C54.521 87.5436 54.6074 87.589 54.6953 87.6256C54.7832 87.6622 54.8755 87.69 54.9692 87.7091C55.0645 87.7281 55.1597 87.7369 55.2549 87.7369C55.3516 87.7369 55.4468 87.7281 55.542 87.7091C55.6357 87.69 55.7266 87.6622 55.8159 87.6256C55.9038 87.589 55.9888 87.5436 56.0679 87.4908C56.1484 87.4366 56.2231 87.3751 56.292 87.3077C56.3594 87.2403 56.4194 87.1656 56.4736 87.0851C56.5264 87.006 56.5718 86.921 56.6084 86.8331C56.645 86.7437 56.6729 86.6515 56.6919 86.5592C56.7109 86.464 56.7197 86.3673 56.7197 86.2721C56.7197 86.1768 56.7109 86.0802 56.6919 85.9864C56.6729 85.8927 56.645 85.8004 56.6084 85.7125Z" fill="white"/>
</svg>
