<svg width="166" height="166" viewBox="0 0 166 166" fill="none" xmlns="http://www.w3.org/2000/svg">
<circle cx="83" cy="83" r="83" fill="#F11E24"/>
<path d="M120.202 92.5722C118.775 90.4757 115.902 89.9209 113.8 91.3341L104.228 97.7396L104.2 77.8016L107.526 80.9166C108.233 81.5789 109.155 81.9433 110.123 81.9433C110.124 81.9433 110.126 81.9433 110.128 81.9433C111.173 81.9419 112.182 81.5039 112.897 80.7414C113.591 80.0006 113.955 79.0341 113.921 78.0196C113.888 77.005 113.462 76.0642 112.721 75.3703L106.417 69.4649C105.986 69.0606 105.308 69.0827 104.904 69.5143C104.5 69.9458 104.522 70.6232 104.954 71.0275L111.257 76.9328C111.581 77.2358 111.767 77.6465 111.781 78.0893C111.796 78.5321 111.637 78.9542 111.334 79.2775C111.018 79.6152 110.588 79.8016 110.125 79.8022C110.124 79.8022 110.124 79.8022 110.123 79.8022C109.7 79.8022 109.298 79.6431 108.989 79.3539C108.989 79.3538 108.989 79.3538 108.989 79.3538L83.9576 55.9047C83.5451 55.5184 82.9032 55.519 82.4917 55.9067L57.5252 79.426C57.2028 79.7298 56.7812 79.8889 56.3383 79.8766C55.8953 79.8634 55.4841 79.6784 55.1803 79.3557C54.8765 79.0333 54.7164 78.6117 54.7297 78.1689C54.7429 77.7259 54.9279 77.3147 55.2503 77.0109L82.0829 51.7338C82.7189 51.1346 83.7168 51.1331 84.3544 51.7308L100.053 66.4366C100.484 66.8408 101.162 66.8188 101.566 66.3873C101.97 65.9557 101.948 65.2784 101.517 64.8741L85.8184 50.1682C84.3575 48.7995 82.0719 48.8025 80.6148 50.1754L72.0251 58.2672L72.0228 56.8239C72.0222 56.3689 71.8444 55.9415 71.5223 55.6204C71.2007 55.2997 70.7739 55.1232 70.3198 55.1232C70.3189 55.1232 70.3182 55.1232 70.3173 55.1232L64.1727 55.1318C63.7177 55.1324 63.2904 55.3103 62.9692 55.6324C62.6481 55.9545 62.4714 56.3824 62.4722 56.8375L62.4892 67.2506L53.7823 75.4527C53.0434 76.1487 52.6199 77.0907 52.5896 78.1053C52.5593 79.1198 52.9259 80.0855 53.6219 80.824C54.3177 81.5629 55.2597 81.9865 56.2744 82.0169C56.3132 82.018 56.3521 82.0186 56.3909 82.0186C57.3628 82.0186 58.2832 81.6539 58.9935 80.9844L62.3112 77.859L62.3244 87.2767C61.2509 87.1204 60.1649 87.0383 59.0739 87.0383H57.2421V86.3964C57.2421 84.2415 55.4888 82.4882 53.3339 82.4882H49.9082C47.7533 82.4881 46 84.2412 46 86.3963V103.171C46 103.763 46.4793 104.242 47.0705 104.242C47.6617 104.242 48.141 103.763 48.141 103.171V86.3963C48.141 85.4219 48.9338 84.6291 49.9082 84.6291H53.3337C54.3082 84.6291 55.1009 85.4219 55.1009 86.3963V88.1087V110.051V111.747C55.1009 112.721 54.3082 113.514 53.3337 113.514H49.9082C48.9338 113.514 48.141 112.721 48.141 111.747V109.874C48.141 109.283 47.6617 108.803 47.0705 108.803C46.4793 108.803 46 109.283 46 109.874V111.747C46 113.902 47.7533 115.655 49.9082 115.655H53.3337C55.4887 115.655 57.2419 113.902 57.2419 111.747V111.602L72.9193 117.538C72.9483 117.549 72.9777 117.559 73.0076 117.567C73.6892 117.76 74.3705 117.856 75.0432 117.856C75.407 117.856 75.7684 117.828 76.1261 117.771L99.1653 114.45C99.1707 114.45 99.176 114.449 99.1814 114.448C101.14 114.135 102.988 113.307 104.525 112.053C104.539 112.043 104.552 112.031 104.564 112.02L119.449 98.6329C121.182 97.0941 121.506 94.4885 120.202 92.5722ZM69.8824 57.265L69.8874 60.2811L64.6268 65.2366L64.6138 57.2721L69.8824 57.265ZM83.2277 58.1547L102.056 75.7932L102.089 99.1711L99.0583 101.2L95.8486 101.02L95.7638 100.167C95.4651 97.1644 93.2485 94.749 90.3175 94.1726L90.2982 80.2646C90.2967 79.1973 89.4278 78.33 88.3606 78.33C88.3598 78.33 88.359 78.33 88.358 78.33L78.1548 78.3443C77.6373 78.3451 77.1509 78.5472 76.7856 78.9137C76.4201 79.2801 76.2193 79.767 76.22 80.2844L76.237 92.4105C74.216 91.9485 72.2862 91.1855 70.4819 90.13C70.2568 89.9983 70.0294 89.8712 69.8002 89.7476C69.7108 89.6994 69.62 89.6541 69.5299 89.6071C69.3905 89.5343 69.2513 89.461 69.1104 89.3912C68.9982 89.3355 68.8847 89.2828 68.7716 89.229C68.6516 89.172 68.5318 89.1145 68.4109 89.0595C68.2879 89.0037 68.1638 88.9505 68.0399 88.8969C67.9267 88.848 67.8134 88.7988 67.6995 88.7518C67.572 88.6992 67.4438 88.6486 67.3155 88.5984C67.2017 88.5539 67.0877 88.5096 66.9733 88.4669C66.8463 88.4194 66.7188 88.3735 66.5909 88.3286C66.4709 88.2862 66.3508 88.2449 66.2301 88.2047C66.1076 88.1638 65.9849 88.1238 65.8615 88.085C65.7301 88.0435 65.5981 88.004 65.466 87.9649C65.3525 87.9315 65.2391 87.8981 65.125 87.8664C64.976 87.825 64.8263 87.7861 64.6765 87.7478C64.6063 87.7297 64.5366 87.7094 64.466 87.692L64.4494 75.8446L83.2277 58.1547ZM88.1762 93.9046L79.2224 92.8738L78.3788 92.7767L78.3615 80.4851L88.1575 80.4713L88.1762 93.9046ZM118.022 97.0366L103.153 110.41C101.914 111.415 100.427 112.08 98.8517 112.333L75.8225 115.652C75.8176 115.653 75.8129 115.654 75.8081 115.654L75.7921 115.657C75.0944 115.767 74.3679 115.721 73.6324 115.519L57.2421 109.312V89.1792H59.0739C60.6332 89.1792 62.182 89.3592 63.6902 89.7089C63.7463 89.7219 63.8022 89.7353 63.8582 89.7487C64.0435 89.7934 64.2284 89.8394 64.4124 89.8892C64.4285 89.8936 64.4444 89.8983 64.4605 89.9027C64.645 89.9531 64.8287 90.0063 65.0118 90.0618C65.0446 90.0717 65.0775 90.0816 65.1102 90.0917C65.305 90.1519 65.499 90.2147 65.6919 90.2806C65.7118 90.2875 65.7316 90.2945 65.7515 90.3014C66.1533 90.4401 66.5512 90.5915 66.944 90.7552C66.9654 90.7642 66.9868 90.7731 67.0082 90.7822C67.2041 90.8645 67.3987 90.9496 67.5921 91.0381C67.5972 91.0404 67.6025 91.0429 67.6076 91.0454C67.7945 91.1313 67.9801 91.2203 68.1646 91.3119C68.1862 91.3226 68.2081 91.3331 68.2297 91.344C68.4099 91.434 68.5886 91.5274 68.7663 91.6229C68.7999 91.6409 68.8333 91.6593 68.8668 91.6775C69.0461 91.7752 69.2244 91.8748 69.4009 91.9781C71.9484 93.4683 74.7216 94.4335 77.6437 94.847C77.6529 94.8483 77.662 94.8495 77.6712 94.8505L89.6655 96.2314C89.7319 96.2409 89.7978 96.2519 89.8633 96.2642C91.629 96.5959 93.0227 97.9006 93.4889 99.5997C93.5581 99.8513 93.6067 100.112 93.6334 100.379L93.681 100.858L71.2015 98.8883C70.6129 98.8369 70.0932 99.2724 70.0416 99.8613C69.9899 100.45 70.4257 100.97 71.0146 101.021L94.7805 103.103C94.7862 103.104 94.7917 103.104 94.7973 103.104C94.8029 103.105 94.8083 103.105 94.814 103.106L99.296 103.357C99.3161 103.359 99.336 103.359 99.3559 103.359C99.3772 103.359 99.3981 103.356 99.4192 103.354C99.4431 103.353 99.4669 103.352 99.4907 103.349C99.5226 103.345 99.5538 103.338 99.5852 103.331C99.6076 103.326 99.6301 103.323 99.6521 103.316C99.6864 103.306 99.7193 103.293 99.7526 103.28C99.7705 103.272 99.7889 103.267 99.8065 103.259C99.8564 103.236 99.9051 103.209 99.9514 103.178L103.756 100.632C103.756 100.632 103.756 100.632 103.756 100.632L114.992 93.1122C116.122 92.3524 117.665 92.6505 118.432 93.7766C119.132 94.8058 118.958 96.2055 118.022 97.0366Z" fill="white"/>
</svg>
